<svg width="16" height="17" viewBox="0 0 16 17" fill="none" xmlns="http://www.w3.org/2000/svg">
<g clip-path="url(#clip0_268_8945)">
<path d="M8.51526 1.51975C8.34388 1.5071 8.17209 1.50076 8.00024 1.50075V0.500854C8.19679 0.50095 8.39326 0.508288 8.58927 0.522852L8.51526 1.51975ZM10.5193 1.9697C10.1988 1.84601 9.86954 1.74608 9.5343 1.67073L9.75331 0.694834C10.1373 0.780826 10.5127 0.894814 10.8794 1.0368L10.5193 1.9697ZM11.8894 2.67963C11.7464 2.58428 11.6 2.49423 11.4504 2.40966L11.9434 1.53975C12.2854 1.73339 12.6126 1.95195 12.9224 2.19368L12.3074 2.9826C12.1718 2.87684 12.0324 2.77612 11.8894 2.68063V2.67963ZM13.7235 4.46944C13.5256 4.18847 13.3074 3.92245 13.0704 3.67353L13.7945 2.9836C14.0651 3.26957 14.3141 3.57287 14.5415 3.8935L13.7235 4.46944ZM14.4675 5.82131C14.4019 5.66275 14.3305 5.50666 14.2535 5.35335L15.1465 4.9034C15.323 5.25448 15.4735 5.6181 15.5965 5.99129L14.6465 6.30426C14.5928 6.14113 14.5331 5.98004 14.4675 5.82131ZM14.9975 8.32805C14.9894 7.98442 14.956 7.64186 14.8975 7.30315L15.8825 7.13317C15.9492 7.5198 15.9879 7.90976 15.9985 8.30305L14.9975 8.32805ZM14.8665 9.86589C14.8998 9.69657 14.9268 9.52659 14.9475 9.35594L15.9405 9.47893C15.8924 9.86902 15.8155 10.255 15.7105 10.6338L14.7465 10.3668C14.7925 10.2022 14.8325 10.0352 14.8665 9.86589ZM13.9145 12.2446C14.0985 11.954 14.2605 11.6514 14.4005 11.3367L15.3145 11.7417C15.1545 12.1017 14.9695 12.4476 14.7595 12.7796L13.9145 12.2446ZM12.9504 13.4495C13.0724 13.3275 13.1891 13.2015 13.3004 13.0716L14.0585 13.7245C13.9302 13.8734 13.7964 14.0174 13.6575 14.1564L12.9504 13.4495Z" fill="#2D2D2D"/>
<path d="M8.00025 1.50075C6.84909 1.50083 5.71571 1.78477 4.7005 2.3274C3.6853 2.87004 2.8196 3.65463 2.18009 4.61168C1.54058 5.56873 1.14699 6.6687 1.03418 7.81416C0.921379 8.95962 1.09284 10.1152 1.53338 11.1786C1.97393 12.242 2.66995 13.1803 3.55981 13.9105C4.44967 14.6407 5.50589 15.1402 6.63493 15.3648C7.76397 15.5894 8.93098 15.5321 10.0326 15.198C11.1342 14.8639 12.1364 14.2634 12.9504 13.4495L13.6575 14.1564C12.7272 15.0871 11.5816 15.774 10.3224 16.1562C9.06312 16.5385 7.72901 16.6042 6.43826 16.3477C5.1475 16.0912 3.93996 15.5203 2.92261 14.6856C1.90526 13.8509 1.10953 12.7783 0.605907 11.5626C0.102287 10.3469 -0.0936671 9.02585 0.0354055 7.71638C0.164478 6.4069 0.614593 5.14947 1.34587 4.05551C2.07714 2.96154 3.067 2.0648 4.22774 1.44476C5.38847 0.824716 6.68425 0.500506 8.00025 0.500855V1.50075Z" fill="#2D2D2D"/>
<path d="M7.50026 3.50055C7.63288 3.50055 7.76006 3.55322 7.85383 3.64698C7.9476 3.74074 8.00028 3.8679 8.00028 4.0005V9.20996L11.2484 11.0658C11.3602 11.1332 11.4412 11.2417 11.474 11.368C11.5069 11.4944 11.489 11.6286 11.4243 11.7419C11.3595 11.8552 11.2529 11.9388 11.1274 11.9746C11.0018 12.0104 10.8672 11.9957 10.7524 11.9337L7.25225 9.93388C7.17572 9.89018 7.11211 9.82702 7.06785 9.75081C7.0236 9.6746 7.00027 9.58805 7.00024 9.49993V4.0005C7.00024 3.8679 7.05292 3.74074 7.1467 3.64698C7.24047 3.55322 7.36765 3.50055 7.50026 3.50055Z" fill="#2D2D2D"/>
</g>
<defs>
<clipPath id="clip0_268_8945">
<rect width="16.0006" height="15.9983" fill="white" transform="translate(0 0.500854)"/>
</clipPath>
</defs>
</svg>
