<svg width="16" height="17" viewBox="0 0 16 17" fill="none" xmlns="http://www.w3.org/2000/svg">
<g clip-path="url(#clip0_268_9014)">
<path d="M2.6781 12.3937C2.7819 12.4979 2.86144 12.6237 2.91105 12.7621C2.96066 12.9006 2.97912 13.0482 2.96511 13.1946C2.89466 13.8721 2.76141 14.5416 2.5671 15.1944C3.96215 14.8714 4.81418 14.4975 5.2012 14.3015C5.42071 14.1903 5.6735 14.164 5.91122 14.2275C6.59255 14.4098 7.295 14.5013 8.0003 14.4995C11.9965 14.4995 15.0006 11.6928 15.0006 8.5001C15.0006 5.30743 11.9965 2.50072 8.0003 2.50072C4.00415 2.50072 1.00004 5.30843 1.00004 8.5001C1.00004 9.96795 1.61706 11.3298 2.6781 12.3937ZM2.18508 16.2983C1.94813 16.3452 1.71042 16.3882 1.47206 16.4273C1.27205 16.4593 1.12004 16.2513 1.19905 16.0653C1.2876 15.8558 1.36899 15.6434 1.44305 15.4284L1.44605 15.4184C1.69406 14.6985 1.89607 13.8705 1.97007 13.0996C0.743028 11.8698 0 10.2599 0 8.5001C0 4.6345 3.58213 1.50082 8.0003 1.50082C12.4185 1.50082 16.0006 4.6345 16.0006 8.5001C16.0006 12.3657 12.4185 15.4994 8.0003 15.4994C7.20788 15.5011 6.41869 15.3983 5.65321 15.1934C5.13319 15.4564 4.01415 15.9353 2.18508 16.2983Z" fill="#2D2D2D"/>
<path d="M9.18029 6.5882L6.8902 6.87517L6.8082 7.25513L7.25822 7.33812C7.55223 7.40812 7.61023 7.5141 7.54623 7.80707L6.8082 11.2747C6.61419 12.1716 6.9132 12.5936 7.61623 12.5936C8.16125 12.5936 8.79427 12.3416 9.08128 11.9956L9.16929 11.5797C8.96928 11.7557 8.67727 11.8257 8.48326 11.8257C8.20825 11.8257 8.10825 11.6327 8.17925 11.2927L9.18029 6.5882ZM9.25029 4.50042C9.25029 4.7656 9.14493 5.01993 8.95739 5.20745C8.76984 5.39497 8.51548 5.50031 8.25025 5.50031C7.98503 5.50031 7.73066 5.39497 7.54312 5.20745C7.35558 5.01993 7.25021 4.7656 7.25021 4.50042C7.25021 4.23523 7.35558 3.9809 7.54312 3.79338C7.73066 3.60586 7.98503 3.50052 8.25025 3.50052C8.51548 3.50052 8.76984 3.60586 8.95739 3.79338C9.14493 3.9809 9.25029 4.23523 9.25029 4.50042Z" fill="#2D2D2D"/>
</g>
<defs>
<clipPath id="clip0_268_9014">
<rect width="16.0006" height="15.9983" fill="white" transform="translate(0 0.500824)"/>
</clipPath>
</defs>
</svg>
