<svg width="16" height="16" viewBox="0 0 16 16" fill="none" xmlns="http://www.w3.org/2000/svg">
<path fill-rule="evenodd" clip-rule="evenodd" d="M11.8322 1.15817C11.8854 1.20819 11.9276 1.2676 11.9564 1.33301C11.9852 1.39842 12 1.46854 12 1.53936C12 1.61018 11.9852 1.6803 11.9564 1.74571C11.9276 1.81112 11.8854 1.87053 11.8322 1.92055L5.3801 8.00014L11.8322 14.0797C11.9394 14.1808 11.9997 14.3179 11.9997 14.4609C11.9997 14.6039 11.9394 14.741 11.8322 14.8421C11.7249 14.9432 11.5794 15 11.4277 15C11.276 15 11.1305 14.9432 11.0232 14.8421L4.16784 8.38133C4.11463 8.33132 4.07242 8.2719 4.04362 8.20649C4.01482 8.14108 4 8.07096 4 8.00014C4 7.92932 4.01482 7.8592 4.04362 7.79379C4.07242 7.72838 4.11463 7.66897 4.16784 7.61896L11.0232 1.15817C11.0763 1.10804 11.1393 1.06826 11.2087 1.04111C11.2781 1.01397 11.3526 1 11.4277 1C11.5028 1 11.5772 1.01397 11.6467 1.04111C11.7161 1.06826 11.7791 1.10804 11.8322 1.15817Z" fill="#2D2D2D"/>
</svg>
