<svg width="16" height="16" viewBox="0 0 16 16" fill="none" xmlns="http://www.w3.org/2000/svg">
<path d="M3.12506 9.69569C2.72724 9.69569 2.34571 9.53765 2.0644 9.25635C1.7831 8.97504 1.62506 8.59351 1.62506 8.19569C1.62506 7.79786 1.7831 7.41633 2.0644 7.13503C2.34571 6.85372 2.72724 6.69569 3.12506 6.69569C3.52289 6.69569 3.90442 6.85372 4.18572 7.13503C4.46703 7.41633 4.62506 7.79786 4.62506 8.19569C4.62506 8.59351 4.46703 8.97504 4.18572 9.25635C3.90442 9.53765 3.52289 9.69569 3.12506 9.69569ZM8.12506 9.69569C7.72724 9.69569 7.34571 9.53765 7.0644 9.25635C6.7831 8.97504 6.62506 8.59351 6.62506 8.19569C6.62506 7.79786 6.7831 7.41633 7.0644 7.13503C7.34571 6.85372 7.72724 6.69569 8.12506 6.69569C8.52289 6.69569 8.90442 6.85372 9.18572 7.13503C9.46703 7.41633 9.62506 7.79786 9.62506 8.19569C9.62506 8.59351 9.46703 8.97504 9.18572 9.25635C8.90442 9.53765 8.52289 9.69569 8.12506 9.69569ZM13.1251 9.69569C12.7272 9.69569 12.3457 9.53765 12.0644 9.25635C11.7831 8.97504 11.6251 8.59351 11.6251 8.19569C11.6251 7.79786 11.7831 7.41633 12.0644 7.13503C12.3457 6.85372 12.7272 6.69569 13.1251 6.69569C13.5229 6.69569 13.9044 6.85372 14.1857 7.13503C14.467 7.41633 14.6251 7.79786 14.6251 8.19569C14.6251 8.59351 14.467 8.97504 14.1857 9.25635C13.9044 9.53765 13.5229 9.69569 13.1251 9.69569Z" fill="#2D2D2D"/>
</svg>
