<svg width="16" height="17" viewBox="0 0 16 17" fill="none" xmlns="http://www.w3.org/2000/svg">
<g clip-path="url(#clip0_498_8915)">
<path d="M8.0003 15.4993C6.14372 15.4993 4.36317 14.7619 3.05037 13.4493C1.73756 12.1366 1.00004 10.3564 1.00004 8.50003C1.00004 6.64371 1.73756 4.86341 3.05037 3.55079C4.36317 2.23817 6.14372 1.50075 8.0003 1.50075C9.85689 1.50075 11.6374 2.23817 12.9502 3.55079C14.263 4.86341 15.0006 6.64371 15.0006 8.50003C15.0006 10.3564 14.263 12.1366 12.9502 13.4493C11.6374 14.7619 9.85689 15.4993 8.0003 15.4993ZM8.0003 16.4992C10.1221 16.4992 12.157 15.6564 13.6574 14.1563C15.1577 12.6562 16.0006 10.6215 16.0006 8.50003C16.0006 6.37852 15.1577 4.34389 13.6574 2.84376C12.157 1.34362 10.1221 0.500854 8.0003 0.500854C5.87849 0.500854 3.84358 1.34362 2.34323 2.84376C0.842887 4.34389 0 6.37852 0 8.50003C0 10.6215 0.842887 12.6562 2.34323 14.1563C3.84358 15.6564 5.87849 16.4992 8.0003 16.4992Z" fill="#2D2D2D"/>
<path d="M8.00027 4.50043C8.13289 4.50043 8.26007 4.5531 8.35384 4.64686C8.44761 4.74062 8.50029 4.86778 8.50029 5.00038V8.00007H11.5004C11.633 8.00007 11.7602 8.05274 11.854 8.1465C11.9477 8.24026 12.0004 8.36742 12.0004 8.50001C12.0004 8.63261 11.9477 8.75977 11.854 8.85353C11.7602 8.94729 11.633 8.99996 11.5004 8.99996H8.50029V11.9997C8.50029 12.1322 8.44761 12.2594 8.35384 12.3532C8.26007 12.4469 8.13289 12.4996 8.00027 12.4996C7.86766 12.4996 7.74048 12.4469 7.64671 12.3532C7.55293 12.2594 7.50025 12.1322 7.50025 11.9997V8.99996H4.50014C4.36753 8.99996 4.24035 8.94729 4.14657 8.85353C4.0528 8.75977 4.00012 8.63261 4.00012 8.50001C4.00012 8.36742 4.0528 8.24026 4.14657 8.1465C4.24035 8.05274 4.36753 8.00007 4.50014 8.00007H7.50025V5.00038C7.50025 4.86778 7.55293 4.74062 7.64671 4.64686C7.74048 4.5531 7.86766 4.50043 8.00027 4.50043Z" fill="#2D2D2D"/>
</g>
<defs>
<clipPath id="clip0_498_8915">
<rect width="16.0006" height="15.9983" fill="white" transform="translate(0 0.500854)"/>
</clipPath>
</defs>
</svg>
