<svg width="16" height="17" viewBox="0 0 16 17" fill="none" xmlns="http://www.w3.org/2000/svg">
<path d="M8.70733 2.00083C8.51979 1.81337 8.26548 1.70807 8.0003 1.70807C7.73513 1.70807 7.48081 1.81337 7.29328 2.00083L0.646027 8.64614C0.599537 8.69262 0.562659 8.74781 0.537499 8.80854C0.512339 8.86927 0.49939 8.93437 0.49939 9.0001C0.49939 9.06584 0.512339 9.13093 0.537499 9.19167C0.562659 9.2524 0.599537 9.30758 0.646027 9.35407C0.739917 9.44794 0.867259 9.50068 1.00004 9.50068C1.06579 9.50068 1.13089 9.48773 1.19163 9.46258C1.25237 9.43742 1.30756 9.40055 1.35405 9.35407L2.00008 8.70713V13.9996C2.00008 14.3974 2.15812 14.7789 2.43943 15.0601C2.72075 15.3414 3.10229 15.4994 3.50013 15.4994H12.5005C12.8983 15.4994 13.2799 15.3414 13.5612 15.0601C13.8425 14.7789 14.0005 14.3974 14.0005 13.9996V8.70713L14.6466 9.35407C14.7404 9.44794 14.8678 9.50068 15.0006 9.50068C15.1333 9.50068 15.2607 9.44794 15.3546 9.35407C15.4485 9.26019 15.5012 9.13286 15.5012 9.0001C15.5012 8.86734 15.4485 8.74002 15.3546 8.64614L13.0005 6.29338V3.00072C13.0005 2.86813 12.9478 2.74096 12.854 2.64721C12.7603 2.55345 12.6331 2.50077 12.5005 2.50077H11.5004C11.3678 2.50077 11.2406 2.55345 11.1469 2.64721C11.0531 2.74096 11.0004 2.86813 11.0004 3.00072V4.29359L8.70733 2.00083ZM13.0005 7.70724V13.9996C13.0005 14.1322 12.9478 14.2593 12.854 14.3531C12.7603 14.4469 12.6331 14.4995 12.5005 14.4995H3.50013C3.36752 14.4995 3.24034 14.4469 3.14657 14.3531C3.0528 14.2593 3.00012 14.1322 3.00012 13.9996V7.70724L8.0003 2.70775L13.0005 7.70724Z" fill="#2D2D2D"/>
</svg>
