<svg width="124" height="125" viewBox="0 0 124 125" fill="none" xmlns="http://www.w3.org/2000/svg">
<g clip-path="url(#clip0_95_5326)">
<path d="M65.875 89.6251C65.875 90.6528 65.4668 91.6384 64.7401 92.3651C64.0134 93.0918 63.0277 93.5001 62 93.5001C60.9723 93.5001 59.9867 93.0918 59.26 92.3651C58.5333 91.6384 58.125 90.6528 58.125 89.6251V60.2293L49.2435 69.1186C48.5159 69.8462 47.529 70.255 46.5 70.255C45.471 70.255 44.4841 69.8462 43.7565 69.1186C43.0289 68.391 42.6201 67.4041 42.6201 66.3751C42.6201 65.3461 43.0289 64.3592 43.7565 63.6316L59.2565 48.1316C59.6165 47.7707 60.0441 47.4844 60.5149 47.2891C60.9856 47.0937 61.4903 46.9932 62 46.9932C62.5097 46.9932 63.0144 47.0937 63.4852 47.2891C63.9559 47.4844 64.3836 47.7707 64.7435 48.1316L80.2435 63.6316C80.9711 64.3592 81.3799 65.3461 81.3799 66.3751C81.3799 67.4041 80.9711 68.391 80.2435 69.1186C79.5159 69.8462 78.529 70.255 77.5 70.255C76.471 70.255 75.4841 69.8462 74.7565 69.1186L65.875 60.2293V89.6251Z" fill="black"/>
<path d="M108.5 109V35.375L73.625 0.5H31C26.8891 0.5 22.9467 2.13303 20.0398 5.03984C17.133 7.94666 15.5 11.8891 15.5 16V109C15.5 113.111 17.133 117.053 20.0398 119.96C22.9467 122.867 26.8891 124.5 31 124.5H93C97.1109 124.5 101.053 122.867 103.96 119.96C106.867 117.053 108.5 113.111 108.5 109ZM73.625 23.75C73.625 26.8331 74.8498 29.79 77.0299 31.9701C79.21 34.1502 82.1669 35.375 85.25 35.375H100.75V109C100.75 111.055 99.9335 113.027 98.4801 114.48C97.0267 115.933 95.0554 116.75 93 116.75H31C28.9446 116.75 26.9733 115.933 25.5199 114.48C24.0665 113.027 23.25 111.055 23.25 109V16C23.25 13.9446 24.0665 11.9733 25.5199 10.5199C26.9733 9.06651 28.9446 8.25 31 8.25H73.625V23.75Z" fill="black"/>
</g>
<defs>
<clipPath id="clip0_95_5326">
<rect width="124" height="124" fill="white" transform="translate(0 0.5)"/>
</clipPath>
</defs>
</svg>
