<svg width="16" height="16" viewBox="0 0 16 16" fill="none" xmlns="http://www.w3.org/2000/svg">
<path d="M2 2.00003C2 1.46959 2.21071 0.960875 2.58579 0.585796C2.96086 0.210717 3.46957 0 4 0L12 0C12.5304 0 13.0391 0.210717 13.4142 0.585796C13.7893 0.960875 14 1.46959 14 2.00003V15.5003C14 15.5907 13.9754 15.6794 13.9289 15.757C13.8824 15.8346 13.8157 15.8981 13.736 15.9408C13.6563 15.9835 13.5664 16.0038 13.4761 15.9994C13.3858 15.9951 13.2983 15.9664 13.223 15.9163L8 13.1012L2.777 15.9163C2.70171 15.9664 2.61423 15.9951 2.52389 15.9994C2.43355 16.0038 2.34373 15.9835 2.264 15.9408C2.18427 15.8981 2.1176 15.8346 2.07111 15.757C2.02462 15.6794 2.00005 15.5907 2 15.5003V2.00003ZM4 1.00002C3.73478 1.00002 3.48043 1.10537 3.29289 1.29291C3.10536 1.48045 3 1.73481 3 2.00003V14.5662L7.723 12.0842C7.80506 12.0296 7.90143 12.0005 8 12.0005C8.09857 12.0005 8.19494 12.0296 8.277 12.0842L13 14.5662V2.00003C13 1.73481 12.8946 1.48045 12.7071 1.29291C12.5196 1.10537 12.2652 1.00002 12 1.00002H4Z" fill="#2D2D2D"/>
</svg>
