<svg width="16" height="17" viewBox="0 0 16 17" fill="none" xmlns="http://www.w3.org/2000/svg">
<g clip-path="url(#clip0_268_8963)">
<path d="M2 2.50068C2 1.97029 2.21072 1.46163 2.58581 1.08659C2.9609 0.71155 3.46962 0.500854 4.00008 0.500854L12.0004 0.500854C12.5308 0.500854 13.0396 0.71155 13.4146 1.08659C13.7897 1.46163 14.0005 1.97029 14.0005 2.50068V15.9995C14.0004 16.0899 13.9758 16.1787 13.9293 16.2562C13.8828 16.3338 13.8162 16.3973 13.7364 16.44C13.6567 16.4827 13.5669 16.503 13.4765 16.4986C13.3862 16.4943 13.2987 16.4656 13.2234 16.4155L8.00023 13.6007L2.77703 16.4155C2.70173 16.4656 2.61425 16.4943 2.52391 16.4986C2.43357 16.503 2.34375 16.4827 2.26401 16.44C2.18427 16.3973 2.11761 16.3338 2.07112 16.2562C2.02462 16.1787 2.00005 16.0899 2 15.9995V2.50068ZM4.00008 1.50077C3.73485 1.50077 3.48049 1.60612 3.29294 1.79364C3.1054 1.98116 3.00004 2.23549 3.00004 2.50068V15.0656L7.72321 12.5838C7.80528 12.5292 7.90165 12.5001 8.00023 12.5001C8.0988 12.5001 8.19517 12.5292 8.27724 12.5838L13.0004 15.0656V2.50068C13.0004 2.23549 12.8951 1.98116 12.7075 1.79364C12.52 1.60612 12.2656 1.50077 12.0004 1.50077H4.00008Z" fill="#2D2D2D"/>
</g>
<defs>
<clipPath id="clip0_268_8963">
<rect width="16.0006" height="15.9983" fill="white" transform="translate(0 0.500854)"/>
</clipPath>
</defs>
</svg>
