<svg width="16" height="16" viewBox="0 0 16 16" fill="none" xmlns="http://www.w3.org/2000/svg">
<g clip-path="url(#clip0_248_6155)">
<path fill-rule="evenodd" clip-rule="evenodd" d="M2 1.58333C2 1.42862 2.05747 1.28025 2.15976 1.17085C2.26205 1.06146 2.40079 1 2.54545 1L14.4545 0.995812C14.5992 0.995812 14.7379 1.05727 14.8402 1.16667C14.9425 1.27606 15 1.42444 15 1.57915V14.4167C15 14.5714 14.9425 14.7198 14.8402 14.8291C14.7379 14.9385 14.5992 15 14.4545 15H2.54545C2.40079 15 2.26205 14.9385 2.15976 14.8291C2.05747 14.7198 2 14.5714 2 14.4167V11.9167C2 11.762 1.94253 11.6136 1.84024 11.5042C1.73795 11.3948 1.64466 11.3333 1.5 11.3333C1.35534 11.3333 1.26205 11.3948 1.15976 11.5042C1.05747 11.6136 1 11.762 1 11.9167V14.25C1 14.7141 1.1724 15.1592 1.47928 15.4874C1.78616 15.8156 2.20237 16 2.63636 16H14.3636C14.7976 16 15.2138 15.8156 15.5207 15.4874C15.8276 15.1592 16 14.7141 16 14.25V1.75C16 1.28587 15.8276 0.840752 15.5207 0.512563C15.2138 0.184375 14.7976 0 14.3636 0H2.63636C2.20237 0 1.78616 0.184375 1.47928 0.512563C1.1724 0.840752 1 1.28587 1 1.75V4.08333C1 4.23804 1.05747 4.38642 1.15976 4.49581C1.26205 4.60521 1.35534 4.66667 1.5 4.66667C1.64466 4.66667 1.73795 4.60521 1.84024 4.49581C1.94253 4.38642 2 4.23804 2 4.08333V1.58333Z" fill="#2D2D2D"/>
<path fill-rule="evenodd" clip-rule="evenodd" d="M13.7905 8.50562C13.8569 8.43928 13.9096 8.36048 13.9455 8.27371C13.9815 8.18695 14 8.09394 14 8C14 7.90606 13.9815 7.81305 13.9455 7.72629C13.9096 7.63952 13.8569 7.56072 13.7905 7.49438L8.2034 3.20944C8.13708 3.14304 8.05836 3.09037 7.97172 3.05443C7.88507 3.0185 7.79221 3 7.69843 3C7.60465 3 7.51179 3.0185 7.42515 3.05443C7.3385 3.09037 7.25978 3.14304 7.19347 3.20944C7.12715 3.27584 7.07455 3.35466 7.03866 3.44142C7.00277 3.52817 6.9843 3.62116 6.9843 3.71506C6.9843 3.80896 7.00277 3.90195 7.03866 3.9887C7.07455 4.07546 7.12715 4.15428 7.19347 4.22068L11.5638 7.28584H0.713229C0.524069 7.28584 0.342656 7.36109 0.2089 7.49502C0.0751435 7.62895 0 7.81059 0 8C0 8.18941 0.0751435 8.37106 0.2089 8.50499C0.342656 8.63892 0.524069 8.71416 0.713229 8.71416H11.5638L7.19347 11.7793C7.12715 11.8457 7.07455 11.9245 7.03866 12.0113C7.00277 12.0981 6.9843 12.191 6.9843 12.2849C6.9843 12.3788 7.00277 12.4718 7.03866 12.5586C7.07455 12.6453 7.12715 12.7242 7.19347 12.7906C7.25978 12.857 7.3385 12.9096 7.42515 12.9456C7.51179 12.9815 7.60465 13 7.69843 13C7.79221 13 7.88507 12.9815 7.97172 12.9456C8.05836 12.9096 8.13708 12.857 8.2034 12.7906L13.7905 8.50562Z" fill="#2D2D2D"/>
</g>
<defs>
<clipPath id="clip0_248_6155">
<rect width="16" height="16" fill="white"/>
</clipPath>
</defs>
</svg>
