<svg width="16" height="17" viewBox="0 0 16 17" fill="none" xmlns="http://www.w3.org/2000/svg">
<g clip-path="url(#clip0_268_8951)">
<path d="M8.00027 5.25433C7.57399 5.25433 7.15187 5.33829 6.75804 5.5014C6.3642 5.6645 6.00635 5.90358 5.70492 6.20497C5.40349 6.50635 5.16438 6.86415 5.00125 7.25794C4.83811 7.65172 4.75415 8.07377 4.75415 8.5C4.75415 8.92623 4.83811 9.34828 5.00125 9.74206C5.16438 10.1358 5.40349 10.4936 5.70492 10.795C6.00635 11.0964 6.3642 11.3355 6.75804 11.4986C7.15187 11.6617 7.57399 11.7457 8.00027 11.7457C8.8612 11.7457 9.68686 11.4037 10.2956 10.795C10.9044 10.1864 11.2464 9.3608 11.2464 8.5C11.2464 7.63919 10.9044 6.81365 10.2956 6.20497C9.68686 5.59629 8.8612 5.25433 8.00027 5.25433ZM5.75419 8.5C5.75419 7.90438 5.99083 7.33316 6.41205 6.912C6.83327 6.49084 7.40457 6.25423 8.00027 6.25423C8.59597 6.25423 9.16727 6.49084 9.58849 6.912C10.0097 7.33316 10.2464 7.90438 10.2464 8.5C10.2464 9.09561 10.0097 9.66683 9.58849 10.088C9.16727 10.5092 8.59597 10.7458 8.00027 10.7458C7.40457 10.7458 6.83327 10.5092 6.41205 10.088C5.99083 9.66683 5.75419 9.09561 5.75419 8.5Z" fill="#2D2D2D"/>
<path d="M9.79636 1.84367C9.26934 0.0538584 6.73124 0.0538584 6.20422 1.84367L6.11022 2.16264C6.07341 2.28758 6.00911 2.4027 5.92203 2.49956C5.83494 2.59643 5.72728 2.67258 5.60694 2.72244C5.4866 2.77229 5.35662 2.79459 5.22654 2.78769C5.09646 2.7808 4.96957 2.74489 4.85517 2.68259L4.56316 2.5226C2.9231 1.6307 1.13003 3.42451 2.02306 5.06334L2.18207 5.35531C2.24438 5.46969 2.2803 5.59656 2.28719 5.72663C2.29409 5.85669 2.27179 5.98665 2.22192 6.10698C2.17206 6.2273 2.0959 6.33495 1.99902 6.42202C1.90214 6.50909 1.78701 6.57338 1.66205 6.61018L1.34304 6.70417C-0.447029 7.23112 -0.447029 9.76886 1.34304 10.2958L1.66205 10.3898C1.78701 10.4266 1.90214 10.4909 1.99902 10.578C2.0959 10.665 2.17206 10.7727 2.22192 10.893C2.27179 11.0133 2.29409 11.1433 2.28719 11.2733C2.2803 11.4034 2.24438 11.5303 2.18207 11.6447L2.02206 11.9366C1.13003 13.5765 2.9231 15.3703 4.56316 14.4764L4.85517 14.3174C4.96957 14.2551 5.09646 14.2192 5.22654 14.2123C5.35662 14.2054 5.4866 14.2277 5.60694 14.2775C5.72728 14.3274 5.83494 14.4035 5.92203 14.5004C6.00911 14.5973 6.07341 14.7124 6.11022 14.8373L6.20422 15.1563C6.73124 16.9461 9.26934 16.9461 9.79636 15.1563L9.89036 14.8373C9.92717 14.7124 9.99147 14.5973 10.0786 14.5004C10.1656 14.4035 10.2733 14.3274 10.3936 14.2775C10.514 14.2277 10.644 14.2054 10.774 14.2123C10.9041 14.2192 11.031 14.2551 11.1454 14.3174L11.4374 14.4774C13.0775 15.3703 14.8715 13.5755 13.9775 11.9366L13.8185 11.6447C13.7562 11.5303 13.7203 11.4034 13.7134 11.2733C13.7065 11.1433 13.7288 11.0133 13.7787 10.893C13.8285 10.7727 13.9047 10.665 14.0016 10.578C14.0984 10.4909 14.2136 10.4266 14.3385 10.3898L14.6575 10.2958C16.4476 9.76886 16.4476 7.23112 14.6575 6.70417L14.3385 6.61018C14.2136 6.57338 14.0984 6.50909 14.0016 6.42202C13.9047 6.33495 13.8285 6.2273 13.7787 6.10698C13.7288 5.98665 13.7065 5.85669 13.7134 5.72663C13.7203 5.59656 13.7562 5.46969 13.8185 5.35531L13.9785 5.06334C14.8715 3.42351 13.0765 1.6307 11.4374 2.5236L11.1454 2.68259C11.031 2.74489 10.9041 2.7808 10.774 2.78769C10.644 2.79459 10.514 2.77229 10.3936 2.72244C10.2733 2.67258 10.1656 2.59643 10.0786 2.49956C9.99147 2.4027 9.92717 2.28758 9.89036 2.16264L9.79636 1.84367ZM7.16326 2.12664C7.40927 1.29173 8.59131 1.29173 8.83732 2.12664L8.93132 2.44561C9.01035 2.71367 9.14837 2.96065 9.33527 3.16844C9.52216 3.37623 9.7532 3.53956 10.0114 3.64647C10.2697 3.75337 10.5486 3.80114 10.8277 3.78626C11.1068 3.77139 11.379 3.69425 11.6244 3.5605L11.9154 3.40051C12.6795 2.98556 13.5155 3.82047 13.0995 4.58539L12.9405 4.87736C12.8069 5.12276 12.7299 5.39493 12.7152 5.67393C12.7005 5.95293 12.7484 6.23169 12.8554 6.48978C12.9624 6.74787 13.1258 6.97875 13.3337 7.1655C13.5415 7.35225 13.7885 7.49015 14.0565 7.56908L14.3745 7.66307C15.2096 7.90905 15.2096 9.09093 14.3745 9.3369L14.0555 9.43089C13.7874 9.5099 13.5404 9.6479 13.3326 9.83478C13.1248 10.0216 12.9614 10.2527 12.8545 10.5109C12.7476 10.7691 12.6998 11.0479 12.7147 11.327C12.7296 11.606 12.8067 11.8782 12.9405 12.1236L13.1005 12.4146C13.5155 13.1785 12.6805 14.0144 11.9154 13.5985L11.6244 13.4395C11.379 13.3057 11.1066 13.2286 10.8275 13.2138C10.5483 13.199 10.2694 13.2469 10.0111 13.3539C9.75289 13.4609 9.52187 13.6243 9.33502 13.8322C9.14817 14.0401 9.01023 14.2872 8.93132 14.5554L8.83732 14.8733C8.59131 15.7082 7.40927 15.7082 7.16326 14.8733L7.06925 14.5544C6.9902 14.2864 6.8522 14.0396 6.66537 13.8319C6.47854 13.6242 6.24761 13.461 5.9895 13.3541C5.73139 13.2472 5.45264 13.1994 5.17365 13.2141C4.89467 13.2289 4.62252 13.3059 4.37715 13.4395L4.08514 13.5995C3.32111 14.0144 2.48508 13.1795 2.9011 12.4146L3.0601 12.1236C3.19406 11.8782 3.27136 11.6059 3.28634 11.3267C3.30131 11.0475 3.25358 10.7686 3.14665 10.5102C3.03972 10.2519 2.87629 10.0208 2.66837 9.83383C2.46044 9.64689 2.2133 9.50887 1.94506 9.42989L1.62605 9.3359C0.791018 9.08993 0.791018 7.90805 1.62605 7.66207L1.94506 7.56808C2.21288 7.489 2.45962 7.35105 2.66723 7.16431C2.87484 6.97758 3.03807 6.7468 3.14496 6.48885C3.25185 6.2309 3.29971 5.95232 3.28503 5.6735C3.27035 5.39467 3.1935 5.12266 3.0601 4.87736L2.9001 4.58539C2.48508 3.82147 3.32011 2.98556 4.08514 3.40151L4.37715 3.5605C4.62252 3.69406 4.89467 3.77105 5.17365 3.78583C5.45264 3.8006 5.73139 3.7528 5.9895 3.6459C6.24761 3.53901 6.47854 3.37574 6.66537 3.16806C6.8522 2.96037 6.9902 2.71353 7.06925 2.44561L7.16326 2.12664Z" fill="#2D2D2D"/>
</g>
<defs>
<clipPath id="clip0_268_8951">
<rect width="16.0006" height="15.9983" fill="white" transform="translate(0 0.500824)"/>
</clipPath>
</defs>
</svg>
