<svg width="16" height="17" viewBox="0 0 16 17" fill="none" xmlns="http://www.w3.org/2000/svg">
<g clip-path="url(#clip0_268_9089)">
<path d="M8.0003 15.4993C6.14372 15.4993 4.36317 14.7619 3.05037 13.4492C1.73756 12.1366 1.00004 10.3563 1.00004 8.5C1.00004 6.64367 1.73756 4.86338 3.05037 3.55076C4.36317 2.23814 6.14372 1.50072 8.0003 1.50072C9.85689 1.50072 11.6374 2.23814 12.9502 3.55076C14.263 4.86338 15.0006 6.64367 15.0006 8.5C15.0006 10.3563 14.263 12.1366 12.9502 13.4492C11.6374 14.7619 9.85689 15.4993 8.0003 15.4993ZM8.0003 16.4992C10.1221 16.4992 12.157 15.6564 13.6574 14.1563C15.1577 12.6561 16.0006 10.6215 16.0006 8.5C16.0006 6.37849 15.1577 4.34386 13.6574 2.84373C12.157 1.34359 10.1221 0.500824 8.0003 0.500824C5.87849 0.500824 3.84358 1.34359 2.34323 2.84373C0.842887 4.34386 0 6.37849 0 8.5C0 10.6215 0.842887 12.6561 2.34323 14.1563C3.84358 15.6564 5.87849 16.4992 8.0003 16.4992Z" fill="#2D2D2D"/>
<path d="M5.25522 6.28622C5.25385 6.31851 5.2591 6.35074 5.27065 6.38093C5.2822 6.41111 5.2998 6.43862 5.32238 6.46175C5.34495 6.48489 5.37202 6.50316 5.40191 6.51544C5.43181 6.52773 5.46391 6.53377 5.49623 6.5332H6.32126C6.45926 6.5332 6.56927 6.42021 6.58727 6.28322C6.67727 5.62729 7.12729 5.14934 7.92932 5.14934C8.61534 5.14934 9.24337 5.4923 9.24337 6.31722C9.24337 6.95215 8.86935 7.24412 8.27833 7.68808C7.60531 8.17703 7.07229 8.74797 7.11029 9.67487L7.11329 9.89185C7.11434 9.95745 7.14114 10.02 7.18791 10.066C7.23468 10.112 7.29768 10.1378 7.3633 10.1378H8.17433C8.24063 10.1378 8.30422 10.1115 8.35111 10.0646C8.398 10.0177 8.42434 9.95415 8.42434 9.88785V9.78286C8.42434 9.06494 8.69735 8.85596 9.43437 8.29701C10.0434 7.83406 10.6784 7.32012 10.6784 6.24123C10.6784 4.73038 9.40237 4.00046 8.00532 4.00046C6.73827 4.00046 5.35022 4.5904 5.25522 6.28622ZM6.81228 12.0486C6.81228 12.5816 7.23729 12.9755 7.82231 12.9755C8.43134 12.9755 8.85035 12.5816 8.85035 12.0486C8.85035 11.4967 8.43034 11.1087 7.82131 11.1087C7.23729 11.1087 6.81228 11.4967 6.81228 12.0486Z" fill="#2D2D2D"/>
</g>
<defs>
<clipPath id="clip0_268_9089">
<rect width="16.0006" height="15.9983" fill="white" transform="translate(0 0.500824)"/>
</clipPath>
</defs>
</svg>
