<svg width="16" height="17" viewBox="0 0 16 17" fill="none" xmlns="http://www.w3.org/2000/svg">
<g clip-path="url(#clip0_268_9083)">
<path d="M2.6781 12.3937C2.7819 12.4979 2.86144 12.6237 2.91105 12.7621C2.96066 12.9006 2.97912 13.0483 2.96511 13.1946C2.89466 13.8721 2.76141 14.5416 2.5671 15.1944C3.96215 14.8715 4.81418 14.4975 5.2012 14.3015C5.42071 14.1904 5.6735 14.164 5.91122 14.2275C6.59255 14.4099 7.295 14.5013 8.0003 14.4995C11.9965 14.4995 15.0006 11.6928 15.0006 8.50013C15.0006 5.30746 11.9965 2.50075 8.0003 2.50075C4.00415 2.50075 1.00004 5.30846 1.00004 8.50013C1.00004 9.96798 1.61706 11.3298 2.6781 12.3937ZM2.18508 16.2983C1.94813 16.3452 1.71042 16.3882 1.47206 16.4273C1.27205 16.4593 1.12004 16.2513 1.19905 16.0654C1.2876 15.8559 1.36899 15.6434 1.44305 15.4284L1.44605 15.4184C1.69406 14.6985 1.89607 13.8706 1.97007 13.0997C0.743028 11.8698 0 10.26 0 8.50013C0 4.63453 3.58213 1.50085 8.0003 1.50085C12.4185 1.50085 16.0006 4.63453 16.0006 8.50013C16.0006 12.3657 12.4185 15.4994 8.0003 15.4994C7.20788 15.5012 6.41869 15.3983 5.65321 15.1934C5.13319 15.4564 4.01415 15.9354 2.18508 16.2983Z" fill="#2D2D2D"/>
</g>
<defs>
<clipPath id="clip0_268_9083">
<rect width="16.0006" height="15.9983" fill="white" transform="translate(0 0.500854)"/>
</clipPath>
</defs>
</svg>
