<svg width="16" height="17" viewBox="0 0 16 17" fill="none" xmlns="http://www.w3.org/2000/svg">
<path fill-rule="evenodd" clip-rule="evenodd" d="M14.0006 3.00062C14.0006 2.86803 13.9479 2.74086 13.8542 2.6471C13.7604 2.55334 13.6333 2.50067 13.5007 2.50067H4.50159C4.369 2.50067 4.24184 2.55334 4.14808 2.6471C4.05432 2.74086 4.00165 2.86803 4.00165 3.00062C4.00165 3.13321 4.05432 3.26038 4.14808 3.35414C4.24184 3.4479 4.369 3.50057 4.50159 3.50057H12.2938L2.14784 13.6455C2.10135 13.692 2.06448 13.7472 2.03933 13.8079C2.01417 13.8687 2.00122 13.9337 2.00122 13.9995C2.00122 14.0652 2.01417 14.1303 2.03933 14.191C2.06448 14.2518 2.10135 14.307 2.14784 14.3534C2.19432 14.3999 2.2495 14.4368 2.31024 14.462C2.37097 14.4871 2.43606 14.5001 2.5018 14.5001C2.56754 14.5001 2.63263 14.4871 2.69336 14.462C2.7541 14.4368 2.80928 14.3999 2.85576 14.3534L13.0007 4.2075V11.9997C13.0007 12.1323 13.0534 12.2594 13.1471 12.3532C13.2409 12.447 13.3681 12.4996 13.5007 12.4996C13.6333 12.4996 13.7604 12.447 13.8542 12.3532C13.9479 12.2594 14.0006 12.1323 14.0006 11.9997V3.00062Z" fill="#2D2D2D"/>
</svg>
