<svg width="16" height="17" viewBox="0 0 16 17" fill="none" xmlns="http://www.w3.org/2000/svg">
<g clip-path="url(#clip0_268_9092)">
<path d="M9.0003 7.50011C9.0003 7.23492 9.10566 6.98059 9.29321 6.79308C9.48075 6.60556 9.73511 6.50021 10.0003 6.50021H15.0005V8.50001H10.0003C9.73511 8.50001 9.48075 8.39466 9.29321 8.20714C9.10566 8.01963 9.0003 7.7653 9.0003 7.50011ZM1 9.4999H5.00015C5.26538 9.4999 5.51974 9.60525 5.70728 9.79277C5.89483 9.98028 6.00019 10.2346 6.00019 10.4998C6.00019 10.765 5.89483 11.0193 5.70728 11.2068C5.51974 11.3944 5.26538 11.4997 5.00015 11.4997H1V9.4999Z" fill="#2D2D2D"/>
<path d="M3.50013 0.500824C3.63274 0.500824 3.75993 0.553497 3.8537 0.647255C3.94747 0.741014 4.00015 0.868178 4.00015 1.00077V1.50072H12.0005V1.00077C12.0005 0.868178 12.0531 0.741014 12.1469 0.647255C12.2407 0.553497 12.3679 0.500824 12.5005 0.500824C12.6331 0.500824 12.7603 0.553497 12.854 0.647255C12.9478 0.741014 13.0005 0.868178 13.0005 1.00077V1.50072H14.0005C14.531 1.50072 15.0397 1.71141 15.4148 2.08645C15.7899 2.46148 16.0006 2.97014 16.0006 3.50051V14.4994C16.0006 15.0298 15.7899 15.5384 15.4148 15.9134C15.0397 16.2885 14.531 16.4992 14.0005 16.4992H2.00008C1.46962 16.4992 0.960895 16.2885 0.585808 15.9134C0.210722 15.5384 0 15.0298 0 14.4994V3.50051C0 2.97014 0.210722 2.46148 0.585808 2.08645C0.960895 1.71141 1.46962 1.50072 2.00008 1.50072H3.00011V1.00077C3.00011 0.868178 3.05279 0.741014 3.14656 0.647255C3.24034 0.553497 3.36752 0.500824 3.50013 0.500824ZM1.00004 4.50041V14.4994C1.00004 14.7646 1.1054 15.0189 1.29294 15.2064C1.48049 15.3939 1.73485 15.4993 2.00008 15.4993H14.0005C14.2658 15.4993 14.5201 15.3939 14.7077 15.2064C14.8952 15.0189 15.0006 14.7646 15.0006 14.4994V4.50041H1.00004Z" fill="#2D2D2D"/>
</g>
<defs>
<clipPath id="clip0_268_9092">
<rect width="16.0006" height="15.9983" fill="white" transform="translate(0 0.500824)"/>
</clipPath>
</defs>
</svg>
