<svg width="19" height="16" viewBox="0 0 19 16" fill="none" xmlns="http://www.w3.org/2000/svg">
<path fill-rule="evenodd" clip-rule="evenodd" d="M1.95471 4.64592C2.00986 4.59935 2.07539 4.56241 2.14752 4.5372C2.21965 4.512 2.29699 4.49902 2.37508 4.49902C2.45318 4.49902 2.53052 4.512 2.60265 4.5372C2.67478 4.56241 2.74031 4.59935 2.79546 4.64592L9.50008 10.2929L16.2047 4.64592C16.2599 4.59943 16.3255 4.56255 16.3976 4.53739C16.4697 4.51223 16.547 4.49929 16.6251 4.49929C16.7032 4.49929 16.7805 4.51223 16.8526 4.53739C16.9247 4.56255 16.9903 4.59943 17.0455 4.64592C17.1007 4.6924 17.1445 4.74759 17.1743 4.80833C17.2042 4.86907 17.2196 4.93417 17.2196 4.99992C17.2196 5.06566 17.2042 5.13076 17.1743 5.1915C17.1445 5.25224 17.1007 5.30743 17.0455 5.35392L9.92046 11.3539C9.86531 11.4005 9.79978 11.4374 9.72765 11.4626C9.65551 11.4878 9.57818 11.5008 9.50008 11.5008C9.42199 11.5008 9.34466 11.4878 9.27252 11.4626C9.20039 11.4374 9.13486 11.4005 9.07971 11.3539L1.95471 5.35392C1.89942 5.30747 1.85555 5.2523 1.82561 5.19155C1.79568 5.13081 1.78027 5.06568 1.78027 4.99992C1.78027 4.93415 1.79568 4.86903 1.82561 4.80828C1.85555 4.74754 1.89942 4.69236 1.95471 4.64592Z" fill="#2D2D2D"/>
</svg>
