<svg width="84" height="18" viewBox="0 0 84 18" fill="none" xmlns="http://www.w3.org/2000/svg">
<g clip-path="url(#clip0_290_11184)">
<path d="M4.72648 13.952C4.90248 13.968 5.10248 13.984 5.32648 14C5.56648 14 5.84648 14 6.16648 14C8.03848 14 9.42248 13.528 10.3185 12.584C11.2305 11.64 11.6865 10.336 11.6865 8.67203C11.6865 6.92803 11.2545 5.60803 10.3905 4.71203C9.52648 3.81603 8.15848 3.36803 6.28648 3.36803C6.03048 3.36803 5.76648 3.37603 5.49448 3.39203C5.22248 3.39203 4.96648 3.40803 4.72648 3.44003V13.952ZM15.5505 8.67203C15.5505 10.112 15.3265 11.368 14.8785 12.44C14.4305 13.512 13.7905 14.4 12.9585 15.104C12.1425 15.808 11.1425 16.336 9.95848 16.688C8.77448 17.04 7.44648 17.216 5.97448 17.216C5.30248 17.216 4.51848 17.184 3.62248 17.12C2.72648 17.072 1.84648 16.96 0.982483 16.784V0.584026C1.84648 0.424026 2.74248 0.320026 3.67048 0.272025C4.61448 0.208025 5.42248 0.176025 6.09448 0.176025C7.51848 0.176025 8.80648 0.336025 9.95848 0.656025C11.1265 0.976025 12.1265 1.48003 12.9585 2.16803C13.7905 2.85603 14.4305 3.73603 14.8785 4.80803C15.3265 5.88003 15.5505 7.16803 15.5505 8.67203ZM30.2458 10.664C30.2458 11.656 30.1018 12.568 29.8138 13.4C29.5258 14.216 29.1098 14.92 28.5658 15.512C28.0218 16.088 27.3658 16.536 26.5978 16.856C25.8458 17.176 24.9978 17.336 24.0538 17.336C23.1258 17.336 22.2778 17.176 21.5098 16.856C20.7578 16.536 20.1098 16.088 19.5658 15.512C19.0218 14.92 18.5978 14.216 18.2938 13.4C17.9898 12.568 17.8378 11.656 17.8378 10.664C17.8378 9.67203 17.9898 8.76803 18.2938 7.95203C18.6138 7.13603 19.0458 6.44003 19.5898 5.86403C20.1498 5.28803 20.8058 4.84003 21.5578 4.52003C22.3258 4.20003 23.1578 4.04003 24.0538 4.04003C24.9658 4.04003 25.7978 4.20003 26.5498 4.52003C27.3178 4.84003 27.9738 5.28803 28.5178 5.86403C29.0618 6.44003 29.4858 7.13603 29.7898 7.95203C30.0938 8.76803 30.2458 9.67203 30.2458 10.664ZM26.5978 10.664C26.5978 9.56003 26.3738 8.69603 25.9258 8.07203C25.4938 7.43203 24.8698 7.11203 24.0538 7.11203C23.2378 7.11203 22.6058 7.43203 22.1578 8.07203C21.7098 8.69603 21.4858 9.56003 21.4858 10.664C21.4858 11.768 21.7098 12.648 22.1578 13.304C22.6058 13.944 23.2378 14.264 24.0538 14.264C24.8698 14.264 25.4938 13.944 25.9258 13.304C26.3738 12.648 26.5978 11.768 26.5978 10.664ZM36.5679 9.72803C36.5359 10.288 36.5039 10.896 36.4719 11.552C36.4399 12.208 36.4079 12.872 36.3759 13.544C36.3599 14.2 36.3359 14.832 36.3039 15.44C36.2879 16.032 36.2719 16.552 36.2559 17H32.7759C32.8079 16.12 32.8559 15.128 32.9199 14.024C32.9999 12.92 33.0799 11.8 33.1599 10.664C33.2559 9.51203 33.3519 8.39203 33.4479 7.30403C33.5599 6.21603 33.6639 5.24003 33.7599 4.37603H36.7359C37.4239 5.49603 38.0559 6.65603 38.6319 7.85603C39.2079 9.05603 39.8159 10.376 40.4559 11.816C41.1279 10.28 41.7839 8.86403 42.4239 7.56803C43.0639 6.25603 43.6399 5.19203 44.1519 4.37603H47.1759C47.2879 5.24003 47.3919 6.21603 47.4879 7.30403C47.5999 8.39203 47.6959 9.51203 47.7759 10.664C47.8719 11.8 47.9519 12.92 48.0159 14.024C48.0799 15.128 48.1279 16.12 48.1599 17H44.6079C44.5759 15.752 44.5279 14.512 44.4639 13.28C44.4159 12.048 44.3679 10.856 44.3199 9.70403L41.6799 15.512H39.2079L36.5679 9.72803ZM54.7778 15.104C54.7778 15.824 54.5458 16.376 54.0818 16.76C53.6338 17.128 53.1218 17.312 52.5458 17.312C51.9698 17.312 51.4498 17.128 50.9858 16.76C50.5378 16.376 50.3138 15.824 50.3138 15.104C50.3138 14.384 50.5378 13.84 50.9858 13.472C51.4498 13.088 51.9698 12.896 52.5458 12.896C53.1218 12.896 53.6338 13.088 54.0818 13.472C54.5458 13.84 54.7778 14.384 54.7778 15.104ZM68.676 4.37603V17H65.076C65.076 16.2 65.084 15.408 65.1 14.624C65.116 13.824 65.132 13.088 65.148 12.416C65.164 11.744 65.18 11.16 65.196 10.664C65.228 10.152 65.244 9.77603 65.244 9.53603C64.78 10.192 64.316 10.856 63.852 11.528C63.388 12.2 62.94 12.864 62.508 13.52C62.092 14.16 61.692 14.776 61.308 15.368C60.94 15.96 60.612 16.504 60.324 17H57.18V4.37603H60.756C60.756 5.17603 60.748 5.94403 60.732 6.68003C60.732 7.40003 60.724 8.05603 60.708 8.64803C60.692 9.24003 60.676 9.76003 60.66 10.208C60.644 10.64 60.636 10.976 60.636 11.216C61.596 9.80803 62.476 8.54403 63.276 7.42403C64.092 6.30403 64.884 5.28803 65.652 4.37603H68.676ZM83.8474 10.664C83.8474 11.656 83.7034 12.568 83.4154 13.4C83.1274 14.216 82.7114 14.92 82.1674 15.512C81.6234 16.088 80.9674 16.536 80.1994 16.856C79.4474 17.176 78.5994 17.336 77.6554 17.336C76.7274 17.336 75.8794 17.176 75.1114 16.856C74.3594 16.536 73.7114 16.088 73.1674 15.512C72.6234 14.92 72.1994 14.216 71.8954 13.4C71.5914 12.568 71.4394 11.656 71.4394 10.664C71.4394 9.67203 71.5914 8.76803 71.8954 7.95203C72.2154 7.13603 72.6474 6.44003 73.1914 5.86403C73.7514 5.28803 74.4074 4.84003 75.1594 4.52003C75.9274 4.20003 76.7594 4.04003 77.6554 4.04003C78.5674 4.04003 79.3994 4.20003 80.1514 4.52003C80.9194 4.84003 81.5754 5.28803 82.1194 5.86403C82.6634 6.44003 83.0874 7.13603 83.3914 7.95203C83.6954 8.76803 83.8474 9.67203 83.8474 10.664ZM80.1994 10.664C80.1994 9.56003 79.9754 8.69603 79.5274 8.07203C79.0954 7.43203 78.4714 7.11203 77.6554 7.11203C76.8394 7.11203 76.2074 7.43203 75.7594 8.07203C75.3114 8.69603 75.0874 9.56003 75.0874 10.664C75.0874 11.768 75.3114 12.648 75.7594 13.304C76.2074 13.944 76.8394 14.264 77.6554 14.264C78.4714 14.264 79.0954 13.944 79.5274 13.304C79.9754 12.648 80.1994 11.768 80.1994 10.664Z" fill="#8B2635"/>
<circle cx="53" cy="15" r="3" fill="#2D2D2D"/>
</g>
<defs>
<clipPath id="clip0_290_11184">
<rect width="84" height="18" fill="white"/>
</clipPath>
</defs>
</svg>
