<svg width="65" height="32" viewBox="0 0 65 32" fill="none" xmlns="http://www.w3.org/2000/svg">
<rect width="65" height="32" fill="#D9D9D9"/>
<rect x="6" y="6" width="20" height="20" fill="#8B2635"/>
<path d="M38.708 11.732V20H37.568V12.692H34.976L34.58 16.256C34.468 17.248 34.336 17.992 34.184 18.488C34.032 18.976 33.828 19.336 33.572 19.568C33.316 19.792 32.94 19.984 32.444 20.144L32.168 19.256C32.472 19.144 32.696 19 32.84 18.824C32.992 18.648 33.108 18.384 33.188 18.032C33.268 17.68 33.352 17.116 33.44 16.34L33.98 11.732H38.708ZM43.4262 13.532C44.3142 13.532 45.0022 13.828 45.4902 14.42C45.9862 15.012 46.2342 15.816 46.2342 16.832C46.2342 17.488 46.1222 18.068 45.8982 18.572C45.6742 19.068 45.3502 19.456 44.9262 19.736C44.5022 20.008 43.9982 20.144 43.4142 20.144C42.5262 20.144 41.8342 19.848 41.3382 19.256C40.8422 18.664 40.5942 17.86 40.5942 16.844C40.5942 16.188 40.7062 15.612 40.9302 15.116C41.1542 14.612 41.4782 14.224 41.9022 13.952C42.3262 13.672 42.8342 13.532 43.4262 13.532ZM43.4262 14.42C42.3302 14.42 41.7822 15.228 41.7822 16.844C41.7822 18.452 42.3262 19.256 43.4142 19.256C44.5022 19.256 45.0462 18.448 45.0462 16.832C45.0462 15.224 44.5062 14.42 43.4262 14.42ZM49.162 20H48.058V13.676H52.006L51.862 14.588H49.162V20ZM55.2738 13.532C56.1618 13.532 56.8498 13.828 57.3378 14.42C57.8338 15.012 58.0818 15.816 58.0818 16.832C58.0818 17.488 57.9698 18.068 57.7458 18.572C57.5218 19.068 57.1978 19.456 56.7738 19.736C56.3498 20.008 55.8458 20.144 55.2618 20.144C54.3738 20.144 53.6818 19.848 53.1858 19.256C52.6898 18.664 52.4418 17.86 52.4418 16.844C52.4418 16.188 52.5538 15.612 52.7778 15.116C53.0018 14.612 53.3258 14.224 53.7498 13.952C54.1738 13.672 54.6818 13.532 55.2738 13.532ZM55.2738 14.42C54.1778 14.42 53.6298 15.228 53.6298 16.844C53.6298 18.452 54.1738 19.256 55.2618 19.256C56.3498 19.256 56.8938 18.448 56.8938 16.832C56.8938 15.224 56.3538 14.42 55.2738 14.42Z" fill="#8B2635"/>
</svg>
