<svg width="17" height="16" viewBox="0 0 17 16" fill="none" xmlns="http://www.w3.org/2000/svg">
<path fill-rule="evenodd" clip-rule="evenodd" d="M2.26896 4.64592C2.31541 4.59935 2.37059 4.56241 2.43133 4.5372C2.49208 4.512 2.5572 4.49902 2.62296 4.49902C2.68873 4.49902 2.75385 4.512 2.8146 4.5372C2.87534 4.56241 2.93052 4.59935 2.97696 4.64592L8.62296 10.2929L14.269 4.64592C14.3155 4.59943 14.3706 4.56255 14.4314 4.53739C14.4921 4.51223 14.5572 4.49929 14.623 4.49929C14.6887 4.49929 14.7538 4.51223 14.8145 4.53739C14.8753 4.56255 14.9305 4.59943 14.977 4.64592C15.0235 4.6924 15.0603 4.74759 15.0855 4.80833C15.1106 4.86907 15.1236 4.93417 15.1236 4.99992C15.1236 5.06566 15.1106 5.13076 15.0855 5.1915C15.0603 5.25224 15.0235 5.30743 14.977 5.35392L8.97696 11.3539C8.93052 11.4005 8.87534 11.4374 8.8146 11.4626C8.75385 11.4878 8.68873 11.5008 8.62296 11.5008C8.5572 11.5008 8.49208 11.4878 8.43133 11.4626C8.37059 11.4374 8.31541 11.4005 8.26896 11.3539L2.26896 5.35392C2.2224 5.30747 2.18546 5.2523 2.16025 5.19155C2.13505 5.13081 2.12207 5.06568 2.12207 4.99992C2.12207 4.93415 2.13505 4.86903 2.16025 4.80828C2.18546 4.74754 2.2224 4.69236 2.26896 4.64592Z" fill="#2D2D2D"/>
</svg>
