<svg width="16" height="16" viewBox="0 0 16 16" fill="none" xmlns="http://www.w3.org/2000/svg">
<path fill-rule="evenodd" clip-rule="evenodd" d="M15.3773 1.3998C15.3773 1.24067 15.3141 1.08806 15.2016 0.975541C15.0891 0.863019 14.9365 0.799805 14.7773 0.799805H3.97732C3.81819 0.799805 3.66558 0.863019 3.55306 0.975541C3.44054 1.08806 3.37732 1.24067 3.37732 1.3998C3.37732 1.55893 3.44054 1.71155 3.55306 1.82407C3.66558 1.93659 3.81819 1.9998 3.97732 1.9998H13.3289L1.15252 14.175C1.09673 14.2308 1.05248 14.297 1.02229 14.3699C0.992102 14.4428 0.976563 14.5209 0.976562 14.5998C0.976562 14.6787 0.992102 14.7568 1.02229 14.8297C1.05248 14.9026 1.09673 14.9688 1.15252 15.0246C1.20831 15.0804 1.27453 15.1246 1.34742 15.1548C1.42031 15.185 1.49843 15.2006 1.57732 15.2006C1.65621 15.2006 1.73433 15.185 1.80722 15.1548C1.88011 15.1246 1.94634 15.0804 2.00212 15.0246L14.1773 2.8482V12.1998C14.1773 12.3589 14.2405 12.5115 14.3531 12.6241C14.4656 12.7366 14.6182 12.7998 14.7773 12.7998C14.9365 12.7998 15.0891 12.7366 15.2016 12.6241C15.3141 12.5115 15.3773 12.3589 15.3773 12.1998V1.3998Z" fill="white"/>
</svg>
